<svg width="89" height="89" viewBox="0 0 89 89" fill="none" xmlns="http://www.w3.org/2000/svg">
<circle cx="44.5" cy="44.5" r="44.5" fill="#F1EEEE"/>
<g clip-path="url(#clip0_29_3177)">
<path d="M64.6636 35.7268C64.3644 35.9608 59.0808 38.9612 59.0808 45.6328C59.0808 53.3496 65.8039 56.0796 66.0052 56.1472C65.9742 56.3136 64.9371 59.886 62.4604 63.526C60.2521 66.7292 57.9457 69.9272 54.4371 69.9272C50.9285 69.9272 50.0256 67.8732 45.9752 67.8732C42.028 67.8732 40.6246 69.9948 37.4152 69.9948C34.2059 69.9948 31.9666 67.0308 29.3919 63.3908C26.4096 59.1164 24 52.476 24 46.1736C24 36.0648 30.5219 30.7036 36.9405 30.7036C40.3511 30.7036 43.1941 32.9604 45.3354 32.9604C47.3735 32.9604 50.5518 30.5684 54.4319 30.5684C55.9025 30.5684 61.186 30.7036 64.6636 35.7268ZM52.5899 26.2888C54.1946 24.37 55.3297 21.7076 55.3297 19.0452C55.3297 18.676 55.2988 18.3016 55.2317 18C52.6209 18.0988 49.5147 19.7524 47.6418 21.9416C46.1713 23.6264 44.7988 26.2888 44.7988 28.9876C44.7988 29.3932 44.8658 29.7988 44.8968 29.9288C45.0619 29.96 45.3302 29.9964 45.5985 29.9964C47.941 29.9964 50.8872 28.4156 52.5899 26.2888Z" fill="#1582C7"/>
</g>
<defs>
<clipPath id="clip0_29_3177">
<rect width="42" height="52" fill="white" transform="translate(24 18)"/>
</clipPath>
</defs>
</svg>
