<svg width="89" height="89" viewBox="0 0 89 89" fill="none" xmlns="http://www.w3.org/2000/svg">
<g clip-path="url(#clip0_35_2795)">
<rect x="5.93335" y="39.5555" width="76.1444" height="39.5556" fill="#1582C7"/>
<path d="M64.5861 0H24.4147C10.9524 0 0 10.9522 0 24.4144V64.5856C0 78.0476 10.9524 89 24.4147 89H64.5841C78.0471 89 89 78.0471 89 64.5843V24.4137C89 10.9519 78.0481 0 64.5861 0ZM26.8839 55.0868C26.8839 55.3081 26.7035 55.4885 26.4797 55.4885H15.7127V64.2938C15.7127 69.1424 19.6544 73.0841 24.5029 73.0841H26.4807C26.7044 73.0841 26.8839 73.2653 26.8839 73.4858V78.1242C26.8839 78.3479 26.7044 78.5274 26.4807 78.5274H24.5029C16.6559 78.5274 10.2713 72.1436 10.2713 64.2938V42.031C10.2713 41.8082 10.4518 41.6285 10.6731 41.6285H15.3112C15.5367 41.6285 15.7127 41.808 15.7127 42.031V50.0435H26.4797C26.7035 50.0435 26.8839 50.2232 26.8839 50.4477V55.0868ZM21.3326 31.3703C15.8707 31.3703 11.4429 26.9428 11.4429 21.4814C11.4429 16.02 15.8707 11.5925 21.3326 11.5925C26.7944 11.5925 31.2222 16.02 31.2222 21.4814C31.2222 26.9428 26.7947 31.3703 21.3326 31.3703ZM36.669 78.1291C36.669 78.3529 36.4893 78.5326 36.2673 78.5326H31.6257C31.4019 78.5326 31.2222 78.3529 31.2222 78.1291V50.4469C31.2222 50.2249 31.4017 50.0437 31.6257 50.0437H36.2673C36.4893 50.0437 36.669 50.2252 36.669 50.4469V78.1291ZM33.9473 47.8558C32.2205 47.8558 30.8217 46.4526 30.8217 44.7282C30.8217 43.0021 32.2207 41.604 33.9473 41.604C35.6742 41.604 37.0707 43.0021 37.0707 44.7282C37.0705 46.4526 35.6742 47.8558 33.9473 47.8558ZM46.7116 78.1242C46.7116 78.3479 46.5312 78.5274 46.3099 78.5274H41.6708C41.4463 78.5274 41.2666 78.3477 41.2666 78.1242V42.033C41.2666 41.8092 41.4463 41.6288 41.6708 41.6288H46.3099C46.5312 41.6288 46.7116 41.8092 46.7116 42.033V78.1242ZM78.6985 65.1349C78.6839 65.3431 78.4965 65.5173 78.2861 65.5171H56.225C56.0144 65.5173 55.8581 65.6694 55.8579 65.8672L55.8648 65.9406C56.6389 70.0158 60.2167 73.1083 64.5151 73.1083C66.7072 73.1083 68.711 72.2977 70.2512 70.9688C70.4153 70.8292 70.7261 70.7028 70.9412 70.7036H76.825C76.9793 70.7056 77.0584 70.7797 77.0594 70.8863C77.0594 70.9273 77.047 70.9748 77.0191 71.0255C74.6173 75.475 69.9127 78.5032 64.5151 78.5032C60.5961 78.5032 57.0438 76.9101 54.4712 74.3372C51.8986 71.7644 50.3058 68.2121 50.3058 64.2938C50.3058 60.499 51.7844 56.9313 54.466 54.2462C57.1484 51.5646 60.7195 50.0862 64.5151 50.0862C68.4321 50.0862 71.9842 51.6793 74.5573 54.2519C77.1304 56.8245 78.7242 60.3764 78.7242 64.2936C78.7247 64.5781 78.7131 64.8573 78.6985 65.1349Z" fill="#F1EEEE"/>
<path d="M72.2554 60.2082C71.865 59.495 69.7105 55.4811 64.5156 55.4811C61.0612 55.4811 58.2849 57.5004 56.7825 60.208C56.7541 60.2584 56.7412 60.3116 56.7412 60.3625C56.7415 60.521 56.8633 60.6609 57.0188 60.6617H72.0171C72.1788 60.6614 72.2972 60.5232 72.2977 60.367C72.2977 60.3148 72.2843 60.2602 72.2554 60.2082Z" fill="#F1EEEE"/>
</g>
<defs>
<clipPath id="clip0_35_2795">
<rect width="89" height="89" fill="white"/>
</clipPath>
</defs>
</svg>
